<?xml version="1.0" standalone="no"?>
<!DOCTYPE svg PUBLIC "-//W3C//DTD SVG 20010904//EN"
 "http://www.w3.org/TR/2001/REC-SVG-20010904/DTD/svg10.dtd">
<svg version="1.0" xmlns="http://www.w3.org/2000/svg"
 width="252.000000pt" height="252.000000pt" viewBox="0 0 252.000000 252.000000"
 preserveAspectRatio="xMidYMid meet">
<metadata>
Created by potrace 1.14, written by Peter Selinger 2001-2017
</metadata>
<g transform="translate(0.000000,252.000000) scale(0.100000,-0.100000)"
fill="#000000" stroke="none">
<path d="M1990 2166 c0 -2 7 -7 16 -10 8 -3 12 -2 9 4 -6 10 -25 14 -25 6z"/>
<path d="M2034 2121 c0 -12 5 -17 15 -13 10 4 12 1 6 -8 -6 -9 -4 -11 4 -6 9
6 8 13 -5 27 -21 23 -20 23 -20 0z"/>
<path d="M1824 2121 c3 -5 -3 -16 -14 -26 -11 -10 -17 -22 -14 -26 3 -5 -9 -7
-25 -5 -17 2 -28 -1 -25 -5 3 -5 0 -9 -7 -9 -8 0 -9 -3 0 -13 6 -8 7 -18 3
-22 -4 -5 -2 -5 5 -1 7 4 10 13 6 21 -3 8 0 15 6 15 6 0 11 -7 11 -16 0 -9 5
-12 13 -8 9 5 9 4 0 -6 -6 -7 -9 -20 -6 -29 4 -11 1 -10 -11 4 -17 20 -17 20
-11 -5 5 -24 5 -24 -7 -5 -14 22 -38 31 -38 15 0 -5 6 -10 13 -10 6 -1 -5 -10
-26 -21 -22 -11 -41 -18 -45 -15 -3 3 -12 0 -20 -7 -13 -10 -14 -9 -8 1 4 7 0
15 -10 19 -11 4 -19 2 -22 -6 -3 -8 -8 -6 -18 6 -13 17 -14 17 -8 -2 3 -12 2
-15 -3 -9 -4 6 -15 10 -24 9 -19 -3 -19 16 -1 38 10 12 10 17 1 23 -14 8 -40
-22 -33 -40 2 -6 -5 -12 -16 -13 -11 -1 -20 2 -20 8 0 5 -20 7 -44 5 -43 -3
-44 -2 -36 20 7 18 6 22 -6 17 -10 -4 -12 0 -7 13 4 14 0 12 -15 -6 l-21 -25
-8 22 c-8 22 -9 22 -21 3 -9 -15 -9 -19 1 -16 6 1 9 1 4 -1 -4 -3 -5 -8 -2
-13 7 -11 -39 -7 -47 5 -5 6 -8 4 -8 -5 0 -13 -1 -13 -10 0 -8 12 -12 13 -19
2 -7 -11 -9 -10 -14 3 -4 9 -3 14 2 11 5 -3 11 1 15 9 3 8 0 17 -6 21 -7 4 -8
3 -4 -4 4 -7 2 -12 -5 -12 -6 0 -9 8 -6 20 3 11 1 17 -4 14 -6 -3 -8 -21 -5
-39 5 -31 4 -33 -24 -31 -17 0 -30 5 -30 10 0 4 -6 4 -13 -2 -17 -15 -53 -8
-49 9 1 8 -4 5 -13 -5 -8 -11 -15 -15 -15 -10 0 5 -8 10 -17 11 -40 3 -85 22
-78 33 3 5 0 12 -6 16 -8 4 -9 3 -5 -4 4 -7 1 -12 -6 -12 -9 0 -10 -3 -2 -8 6
-4 10 -15 8 -25 -2 -15 0 -16 13 -5 13 10 17 10 20 1 3 -7 9 -13 14 -13 6 0 7
5 3 12 -4 7 -3 8 5 4 18 -11 3 -26 -22 -22 -12 2 -28 -2 -36 -8 -11 -8 -13 -8
-7 2 4 7 1 12 -9 12 -9 0 -14 -4 -11 -8 3 -5 0 -9 -7 -9 -18 -2 -82 -11 -84
-14 -2 -1 -7 -3 -13 -4 -5 -1 -12 -4 -15 -5 -3 -1 -13 -3 -22 -4 -10 -1 -24
-5 -32 -10 -9 -6 -12 -5 -8 0 3 6 -3 15 -14 22 -12 8 -19 9 -19 1 0 -5 -4 -7
-10 -4 -6 4 -7 -1 -3 -11 4 -11 8 -13 11 -6 5 17 19 15 19 -3 0 -8 -4 -12 -8
-9 -4 2 -10 0 -14 -6 -4 -6 -11 -8 -16 -4 -5 3 -6 10 -3 16 5 7 2 8 -6 3 -10
-6 -12 -4 -7 8 3 9 1 19 -5 23 -6 4 -8 3 -5 -3 4 -6 1 -15 -6 -21 -19 -16 -65
-22 -70 -9 -2 6 -6 3 -10 -7 -4 -11 -3 -15 4 -10 7 4 10 1 7 -6 -2 -8 -14 -14
-26 -15 -27 -2 -37 -11 -23 -20 6 -3 11 -1 11 5 0 7 7 10 15 6 8 -3 20 3 27
12 7 10 25 17 40 17 15 -1 24 3 22 7 -3 4 0 8 5 8 6 0 11 -7 11 -16 0 -11 -6
-14 -21 -9 -13 5 -19 3 -15 -3 3 -5 -1 -13 -10 -16 -8 -3 -12 -2 -9 4 12 19
-10 9 -34 -15 l-23 -25 -30 21 c-23 17 -32 19 -41 10 -9 -9 -7 -10 8 -5 18 7
18 6 6 -9 -11 -14 -16 -15 -29 -5 -13 10 -14 10 -8 1 4 -7 2 -14 -3 -14 -6 -1
-16 -2 -22 -3 -7 0 -13 -14 -15 -31 l-3 -30 15 28 c8 15 19 25 24 22 6 -4 10
-1 10 6 0 8 5 7 17 -2 10 -8 14 -9 10 -2 -4 6 -2 15 4 18 7 5 9 1 7 -11 -2
-11 -10 -18 -17 -16 -7 1 -19 -5 -27 -15 -7 -10 -14 -14 -14 -9 0 5 -10 -3
-21 -18 -12 -15 -24 -25 -26 -22 -3 3 -13 -4 -23 -16 -11 -14 -19 -17 -24 -10
-3 6 7 20 23 31 29 21 38 62 13 67 -7 1 -8 0 -2 -3 16 -8 12 -26 -5 -19 -13 5
-14 2 -4 -16 10 -18 9 -20 -5 -15 -12 5 -15 3 -10 -5 5 -8 2 -9 -10 -5 -10 4
-15 3 -11 -4 8 -12 -14 -41 -26 -33 -5 3 -9 0 -9 -5 0 -15 13 -14 29 2 10 10
12 8 9 -8 -2 -13 -10 -19 -22 -17 -14 3 -17 -1 -13 -12 4 -9 1 -15 -5 -13 -7
1 -12 -3 -13 -9 0 -18 -35 -46 -50 -40 -8 3 -15 2 -16 -2 0 -4 -2 -15 -4 -25
-2 -9 1 -15 6 -11 5 3 7 10 4 15 -4 5 -1 9 4 9 6 0 11 -2 11 -4 0 -13 -43 -76
-52 -76 -5 0 -6 -5 -2 -12 5 -7 3 -8 -5 -4 -8 6 -11 2 -9 -10 2 -13 -3 -19
-16 -19 -11 0 -21 -7 -23 -15 -4 -12 -3 -12 5 -1 7 9 12 10 16 2 4 -6 3 -11
-3 -11 -5 0 -8 -8 -6 -17 1 -10 -2 -27 -8 -38 -6 -11 -12 -29 -14 -39 -4 -24
-11 -32 -19 -23 -4 4 -1 15 7 24 13 16 12 17 -3 5 -9 -8 -23 -10 -30 -6 -7 4
-4 -3 7 -16 15 -17 16 -22 5 -18 -12 4 -16 -1 -15 -22 0 -18 4 -26 13 -23 9 4
10 9 2 18 -8 9 -6 14 6 19 9 4 19 4 22 1 3 -3 0 -5 -7 -5 -7 0 -10 -10 -7 -25
3 -14 1 -23 -3 -20 -5 2 -7 -23 -6 -56 1 -34 -1 -55 -6 -48 -4 7 -6 16 -3 20
2 4 1 10 -3 12 -10 6 -9 -200 0 -209 4 -4 2 -12 -3 -19 -6 -8 -5 -18 3 -29 11
-16 13 -15 12 11 0 15 -4 34 -8 41 -5 7 -4 12 2 12 12 0 14 -11 13 -48 -1 -12
3 -20 8 -17 4 3 7 -3 5 -12 -1 -10 2 -24 8 -30 5 -7 6 -13 2 -13 -4 0 -2 -7 5
-15 7 -8 9 -15 5 -15 -4 0 -2 -7 5 -15 7 -8 9 -15 4 -15 -4 0 -3 -5 3 -11 6
-6 9 -18 6 -27 -4 -10 -2 -13 5 -8 8 5 10 1 5 -10 -4 -12 -3 -15 5 -10 8 5 10
1 5 -10 -5 -12 -3 -15 6 -9 10 6 11 3 1 -14 -9 -18 -9 -26 2 -39 11 -13 11
-15 -2 -10 -11 4 -16 0 -16 -13 0 -23 1 -23 21 -3 12 13 13 19 4 30 -7 8 -8
18 -4 22 4 4 10 1 12 -6 3 -7 15 -25 28 -40 16 -19 21 -33 15 -43 -8 -12 -12
-11 -24 6 -12 17 -17 18 -28 7 -11 -11 -10 -12 6 -6 12 5 17 4 13 -3 -4 -5 5
-15 19 -22 14 -6 22 -16 19 -21 -3 -6 -2 -10 4 -10 5 0 11 6 14 13 4 9 7 9 17
0 11 -10 9 -14 -11 -22 -16 -6 -18 -10 -7 -10 9 -1 25 -12 35 -26 14 -19 21
-22 33 -14 12 9 12 10 -4 5 -14 -5 -17 -2 -12 9 3 9 2 14 -3 11 -5 -3 -14 0
-20 8 -9 11 -8 15 6 20 10 4 14 4 11 0 -4 -4 8 -19 28 -35 20 -15 30 -30 24
-34 -5 -3 -10 -1 -10 5 0 6 -5 8 -11 4 -19 -12 13 -24 34 -12 11 5 17 6 14 1
-4 -5 10 -17 29 -26 22 -11 32 -22 28 -29 -5 -8 -2 -9 9 -5 10 4 20 0 26 -11
6 -9 11 -14 11 -9 0 4 19 -3 42 -15 24 -12 46 -22 50 -23 4 0 12 -5 19 -12 6
-6 19 -9 28 -6 12 4 11 2 -3 -9 -15 -12 -16 -17 -6 -23 8 -5 18 -1 27 10 7 11
13 13 13 7 0 -7 3 -11 8 -11 22 4 52 -2 52 -10 0 -6 -9 -9 -20 -8 -11 1 -20 4
-20 7 0 12 -29 7 -34 -6 -3 -8 0 -11 10 -7 8 3 24 -3 34 -12 11 -10 20 -15 20
-10 0 4 7 2 15 -5 10 -9 15 -9 15 -1 0 6 5 11 11 11 6 0 8 -9 4 -21 -5 -16 -3
-20 6 -17 8 3 13 12 11 21 -2 10 4 14 15 12 10 -2 20 -4 23 -4 3 -1 0 -5 -7
-9 -8 -5 -9 -13 -3 -22 8 -13 10 -13 10 1 0 9 7 16 15 16 8 0 15 -4 15 -9 0
-4 -4 -8 -10 -8 -5 0 -10 -4 -10 -8 0 -15 29 -9 46 9 12 13 12 19 3 25 -7 4
-10 3 -5 -4 3 -6 2 -13 -3 -16 -5 -3 -12 1 -15 10 -3 8 -10 13 -15 10 -5 -3
-14 0 -20 8 -7 8 -27 12 -52 11 -27 -2 -39 1 -36 9 3 6 11 9 18 7 8 -2 22 -3
32 -3 9 0 29 -6 45 -14 33 -17 46 -18 36 -1 -6 9 -5 9 8 0 8 -7 19 -9 23 -5 5
4 5 2 1 -5 -5 -9 3 -11 29 -9 19 2 38 0 40 -5 3 -4 12 -6 20 -2 19 7 19 -7 0
-34 -10 -14 -12 -24 -5 -28 6 -4 9 -1 8 6 -2 6 3 14 10 16 6 3 10 -1 9 -9 -2
-7 -2 -10 0 -5 3 4 10 4 16 0 8 -5 8 -2 0 9 -7 8 -9 19 -5 23 4 5 1 5 -5 1 -9
-5 -11 -2 -7 8 5 12 9 13 19 3 7 -7 11 -14 10 -17 -2 -3 0 -12 6 -20 7 -13 9
-13 10 0 1 8 2 20 4 25 1 6 3 14 3 19 1 5 8 3 16 -3 10 -8 16 -9 21 -1 3 6 12
7 18 3 18 -12 187 -10 187 2 0 5 4 4 9 -4 8 -12 12 -12 24 -2 11 9 17 9 22 0
6 -8 10 -7 16 2 7 11 9 11 9 -1 0 -13 1 -13 11 0 8 13 9 13 7 -2 -2 -9 2 -17
7 -17 6 0 13 -10 17 -23 l6 -23 1 23 c1 13 5 21 10 17 5 -3 12 -1 16 4 8 14
47 10 67 -6 12 -11 18 -12 24 -2 4 7 3 10 -4 5 -6 -3 -13 -2 -17 4 -3 5 -1 10
5 10 6 0 8 5 4 11 -4 8 -9 7 -15 -2 -5 -8 -9 -9 -9 -3 0 12 -30 15 -45 4 -5
-4 -18 -6 -28 -5 -10 2 -14 -1 -11 -7 4 -7 2 -8 -4 -4 -17 10 -15 29 3 23 8
-4 17 -2 19 2 3 5 16 8 28 7 13 -1 26 3 30 9 5 6 8 5 8 -4 0 -11 3 -11 17 0
14 12 16 12 9 0 -6 -9 -5 -12 5 -9 8 3 13 10 12 16 -1 6 10 8 26 6 16 -3 32 0
36 6 5 8 10 8 20 0 9 -8 14 -7 18 4 4 10 15 13 32 10 15 -3 24 -1 21 4 -3 5 0
9 7 10 22 2 42 8 56 16 10 6 12 5 7 -2 -7 -12 5 -16 33 -13 7 2 10 -2 6 -9 -4
-7 1 -7 14 2 12 7 21 17 21 22 0 4 -6 3 -14 -3 -11 -9 -16 -9 -21 0 -6 8 -10
7 -17 -2 -8 -11 -9 -11 -5 1 2 8 12 15 23 15 10 0 26 5 34 10 25 16 64 14 78
-3 11 -15 13 -15 18 6 4 12 10 22 15 22 13 0 11 -12 -7 -40 l-16 -25 22 25
c13 14 30 24 39 22 9 -1 3 5 -13 14 -27 15 -30 15 -41 0 -11 -15 -13 -15 -26
1 -12 14 -12 16 1 11 9 -3 24 0 35 8 13 10 22 11 32 3 7 -6 13 -8 13 -3 0 5 5
2 10 -6 7 -12 9 -10 7 7 -1 17 -4 19 -14 11 -8 -7 -13 -7 -13 0 0 5 6 12 13
14 16 6 38 -2 33 -11 -3 -4 1 -8 9 -8 13 0 12 3 -1 18 -15 17 -14 18 10 25 14
3 26 10 26 14 0 7 37 21 62 24 3 1 10 5 15 10 5 5 3 6 -4 2 -7 -4 -13 -3 -13
2 0 6 7 13 16 16 8 3 12 10 9 16 -3 5 0 10 7 10 9 0 9 3 2 8 -12 8 -14 103 -1
95 10 -6 9 9 -3 27 -6 10 -4 20 7 32 18 20 33 23 33 7 0 -5 -5 -7 -12 -3 -6 4
-8 3 -4 -4 3 -6 2 -14 -4 -17 -7 -4 -7 -11 -2 -18 16 -20 11 -49 -7 -42 -12 5
-13 3 -4 -5 8 -9 16 -9 30 -1 10 6 13 11 5 11 -7 0 -10 5 -7 10 4 6 1 17 -5
25 -15 18 1 20 18 3 9 -9 12 -9 12 0 0 7 -4 12 -10 12 -5 0 -10 4 -10 10 0 5
3 9 8 9 19 -3 32 2 32 12 0 8 -5 8 -15 -1 -10 -8 -15 -9 -15 -2 0 6 8 16 18
21 9 6 11 11 5 11 -7 0 -13 4 -13 10 0 5 3 9 8 9 24 -4 34 2 27 19 -7 17 -13
40 -14 55 -1 5 -6 5 -12 1 -8 -4 -7 -9 2 -15 11 -7 11 -9 -1 -9 -12 0 -12 -2
-2 -9 11 -7 10 -9 -3 -15 -9 -3 -13 -10 -10 -16 3 -5 1 -10 -5 -10 -6 0 -9 -4
-5 -10 3 -5 -8 -16 -25 -25 -30 -16 -31 -15 -21 3 7 13 7 22 0 29 -8 8 -7 13
2 18 7 5 10 4 5 -3 -4 -7 1 -10 14 -9 11 1 20 7 20 15 0 7 -4 10 -10 7 -5 -3
-10 -1 -10 5 0 7 8 9 20 5 21 -7 25 13 6 26 -4 4 6 15 22 25 17 10 29 20 27
23 -6 10 99 7 115 -3 12 -8 13 -7 3 5 -7 8 -8 20 -4 28 5 7 6 22 4 32 -4 15
-1 18 13 13 16 -5 16 -4 4 5 -18 13 -23 148 -6 170 6 8 7 12 1 9 -6 -4 -10 11
-11 38 0 24 3 41 7 39 4 -3 9 2 13 10 3 8 0 17 -6 21 -7 4 -8 3 -4 -4 4 -7 2
-12 -3 -12 -6 0 -11 13 -11 30 0 30 -6 34 -65 42 -11 2 -26 10 -33 18 -12 13
-13 13 -8 -4 5 -13 2 -17 -9 -13 -8 4 -17 2 -21 -4 -4 -7 -10 -6 -18 0 -7 6
-15 9 -18 6 -2 -3 -4 4 -3 15 2 24 15 39 16 19 1 -8 1 -17 0 -21 0 -3 7 -5 17
-4 10 2 18 13 19 27 l2 24 -8 -25 c-7 -22 -9 -23 -16 -7 -4 10 -2 24 6 35 13
15 12 16 -4 3 -10 -8 -35 -15 -55 -16 -20 0 -37 -6 -40 -14 -3 -10 0 -11 16
-2 15 8 23 7 31 -3 9 -11 9 -16 0 -21 -6 -4 -15 -1 -20 6 -4 7 -11 10 -15 6
-4 -3 -3 -12 2 -20 5 -7 1 -4 -8 6 -10 11 -18 26 -18 34 0 8 -4 11 -10 8 -9
-5 -12 1 -9 21 0 4 -5 11 -13 15 -7 5 -8 9 -3 9 6 0 17 -5 25 -10 13 -9 13
-10 0 -10 -13 0 -13 -1 0 -10 22 -14 25 -13 26 15 1 13 -1 24 -5 23 -20 -2
-31 4 -31 17 0 8 5 15 11 15 5 0 8 -4 4 -9 -3 -5 0 -13 6 -17 7 -4 9 -3 6 3
-3 5 3 24 14 42 17 28 22 30 42 21 21 -11 21 -10 3 4 -11 9 -17 19 -13 23 4 3
15 -1 25 -10 16 -15 18 -15 18 1 0 21 -47 25 -54 4 -2 -6 -8 -9 -14 -6 -6 4
-2 15 11 28 62 65 61 63 34 75 -15 7 -22 7 -18 1 3 -5 1 -10 -6 -10 -10 0 -10
-3 -1 -12 7 -7 12 -17 12 -22 0 -6 -5 -4 -11 4 -9 13 -10 12 -5 -3 4 -12 2
-16 -6 -11 -7 5 -8 3 -3 -6 6 -9 4 -11 -5 -5 -9 6 -11 4 -5 -6 7 -11 6 -11 -9
1 -17 14 -17 15 1 30 10 8 18 22 18 30 0 8 4 18 10 22 10 7 11 11 14 42 0 8 8
16 16 20 13 4 14 2 5 -14 -6 -11 -8 -20 -4 -20 3 0 1 -7 -6 -16 -8 -8 -9 -14
-4 -12 5 1 20 -3 34 -10 l25 -13 -23 17 c-22 16 -22 18 -5 37 10 11 12 17 6
13 -9 -5 -12 0 -10 16 1 16 -3 22 -13 20 -11 -2 -10 1 3 12 10 8 18 17 18 20
-3 23 1 28 19 23 11 -3 18 -1 15 3 -3 5 -1 11 5 15 5 3 10 11 10 16 0 6 -7 3
-16 -6 -9 -9 -19 -13 -23 -9 -3 4 0 9 7 11 6 3 10 9 6 14 -3 5 -1 9 3 9 5 0 9
9 10 20 1 10 9 35 18 54 22 45 12 72 -31 86 -20 7 -31 16 -27 23 4 6 0 8 -10
4 -17 -7 -83 9 -92 22 -2 5 2 15 11 22 13 11 15 10 12 -6 -1 -10 3 -19 10 -21
7 -1 8 0 3 2 -6 3 -7 12 -4 20 3 7 10 11 16 7 5 -3 7 -1 4 5 -10 14 -32 9 -56
-12 -16 -15 -23 -16 -43 -5 -13 7 -24 12 -25 11 -10 -7 -23 0 -17 9 5 8 9 8
14 -1 5 -8 10 -8 14 -2 8 13 -17 22 -33 13 -18 -12 -61 -1 -61 15 0 8 0 17 0
22 0 4 4 7 9 7 5 0 12 3 16 7 10 10 -17 4 -41 -10 -12 -6 -25 -8 -29 -4 -5 4
-5 2 -1 -5 4 -7 13 -10 21 -6 8 3 15 0 15 -5 0 -6 -10 -8 -22 -6 -13 3 -29 6
-35 6 -7 1 -13 8 -13 17 0 11 -3 13 -8 4 -6 -10 -14 -9 -35 2 -15 8 -25 10
-23 6z m-451 -128 c-4 -10 -8 -12 -10 -6 -3 7 -11 9 -19 6 -8 -3 -14 0 -14 7
0 6 4 9 9 5 5 -3 12 -1 16 5 10 16 25 1 18 -17z m167 23 c0 -2 -7 -9 -15 -16
-13 -11 -14 -10 -9 4 5 14 24 23 24 12z m154 -74 c3 -5 -1 -9 -9 -9 -8 0 -12
4 -9 9 3 4 7 8 9 8 2 0 6 -4 9 -8z m37 -19 c13 -16 12 -17 -3 -4 -10 7 -18 15
-18 17 0 8 8 3 21 -13z m-1203 -78 c-3 -3 -9 2 -12 12 -6 14 -5 15 5 6 7 -7
10 -15 7 -18z m1682 -239 c0 -3 -4 -8 -10 -11 -5 -3 -10 -1 -10 4 0 6 5 11 10
11 6 0 10 -2 10 -4z m-1008 -15 c11 6 22 8 26 5 3 -3 0 -6 -7 -6 -7 0 -9 -5
-6 -10 5 -8 11 -8 19 -1 7 6 16 8 19 4 4 -3 7 0 7 8 0 12 2 11 10 -1 9 -13 11
-13 20 0 5 8 10 10 10 3 0 -6 8 -9 19 -6 13 3 21 -2 26 -18 l7 -22 13 23 c8
15 15 19 19 11 4 -6 13 -8 19 -4 7 4 6 0 -2 -10 -18 -22 -3 -22 23 1 16 13 18
13 8 1 -12 -16 -7 -29 10 -29 5 0 7 4 3 9 -3 5 0 13 6 17 7 4 9 3 6 -2 -3 -6
3 -15 14 -22 21 -14 25 -3 7 18 -7 8 -4 7 8 -3 11 -9 24 -14 29 -10 4 5 5 2 1
-4 -7 -13 -2 -15 47 -15 30 -1 36 -12 11 -22 -8 -3 -12 -2 -9 4 3 6 -1 10 -10
10 -14 0 -14 -3 0 -29 16 -32 35 -49 35 -32 0 5 -5 13 -11 17 -8 5 -7 10 5 16
8 5 19 8 22 8 4 -1 11 4 16 12 8 10 9 10 5 -2 -2 -8 -10 -15 -17 -15 -7 0 -15
-6 -18 -14 -3 -8 0 -11 6 -7 5 3 17 -6 26 -19 9 -14 21 -23 26 -20 14 9 12 25
-2 23 -6 -2 -13 5 -14 15 -1 12 0 13 3 2 2 -8 8 -13 13 -10 13 8 22 -13 13
-27 -11 -18 -12 -61 0 -75 6 -9 6 -13 -1 -13 -5 0 -13 8 -17 18 -7 16 -8 15
-15 -3 -5 -15 -2 -22 14 -27 19 -6 18 -7 -4 -5 -19 2 -24 7 -21 22 3 19 2 19
-17 2 -16 -15 -25 -16 -41 -8 -12 7 -22 7 -26 2 -6 -11 32 -26 57 -22 9 1 18
-2 21 -6 3 -4 -12 -8 -33 -8 -21 0 -36 3 -33 8 7 12 -12 8 -27 -5 -12 -11 -12
-10 -2 3 19 25 2 31 -20 6 -11 -12 -17 -17 -14 -11 3 7 -29 10 -104 9 -75 -1
-110 2 -110 9 0 6 -4 5 -9 -3 -5 -7 -14 -10 -20 -7 -6 4 -11 4 -10 -1 1 -4 0
-11 -1 -15 -1 -5 -4 -17 -5 -28 -1 -11 -4 -23 -5 -27 -1 -5 -1 -21 0 -37 1
-21 -2 -26 -12 -20 -10 6 -11 5 -2 -7 7 -8 11 -29 9 -46 -1 -18 1 -33 7 -33 5
0 4 -9 -3 -21 -7 -15 -8 -24 0 -32 7 -7 7 -16 0 -29 -5 -10 -6 -18 -2 -18 4 0
1 -5 -7 -10 -13 -9 -13 -10 0 -10 11 0 15 -10 14 -38 -1 -22 3 -39 10 -40 6
-1 45 -3 86 -5 41 -2 83 -7 93 -11 12 -6 17 -5 15 4 -2 7 4 15 12 17 12 4 12
3 2 -5 -11 -8 -11 -10 1 -15 9 -3 18 1 21 8 7 19 34 9 41 -15 3 -11 15 -22 26
-25 10 -4 19 -11 19 -18 0 -8 -3 -8 -12 1 -7 7 -17 12 -22 12 -6 0 -5 -5 2
-12 8 -8 9 -15 1 -25 -14 -16 3 -17 19 -1 8 8 12 8 12 1 0 -14 -26 -24 -43
-17 -8 3 -14 -2 -14 -10 0 -9 8 -14 20 -13 11 1 21 -4 23 -11 1 -7 0 -8 -3 -2
-9 20 -24 10 -18 -12 3 -13 3 -18 -2 -12 -4 6 -16 10 -25 9 -25 -4 -61 -32
-50 -39 5 -3 15 1 22 9 15 19 29 19 54 0 18 -13 18 -14 -2 -12 -11 0 -18 5
-16 9 14 22 -27 4 -45 -19 -15 -20 -19 -22 -14 -8 6 18 5 18 -10 6 -11 -9 -17
-10 -17 -2 0 6 -4 11 -10 11 -5 0 -7 -8 -3 -17 3 -10 3 -15 -2 -11 -14 13 -13
65 1 65 8 0 14 -4 14 -9 0 -4 -6 -8 -12 -8 -9 0 -8 -4 2 -10 31 -20 35 -5 11
38 -12 22 -11 23 7 13 11 -6 22 -7 26 -4 3 3 6 1 6 -6 0 -7 9 -3 19 10 11 13
17 28 14 33 -3 5 -11 -1 -17 -13 -7 -12 -15 -19 -19 -15 -4 4 -1 14 5 22 16
18 19 44 6 36 -7 -5 -8 -2 -3 7 5 7 -7 4 -28 -9 -39 -23 -40 -23 -31 2 3 9 10
13 15 10 5 -3 8 0 7 7 -2 6 3 14 11 17 8 3 11 0 7 -7 -4 -6 -3 -11 3 -11 5 0
13 5 16 10 3 6 1 10 -5 10 -6 0 -8 5 -5 10 3 6 2 10 -4 10 -5 0 -13 -5 -17
-11 -5 -8 -9 -8 -14 1 -5 9 -9 9 -14 1 -4 -6 -2 -11 4 -11 6 0 9 -4 5 -10 -3
-5 -12 -7 -20 -4 -10 4 -12 11 -6 23 7 13 5 17 -10 18 -10 1 -19 -3 -19 -8 0
-6 5 -7 10 -4 6 3 10 2 10 -4 0 -19 -25 -18 -36 2 -10 17 -12 18 -17 3 -4 -10
-3 -15 2 -12 9 6 26 -22 22 -38 -1 -5 5 -16 14 -26 8 -9 12 -19 9 -22 -7 -8
-42 25 -37 34 2 4 -4 5 -13 1 -12 -4 -15 -3 -10 6 4 6 5 19 2 28 -5 12 -9 13
-21 3 -8 -6 -20 -8 -27 -4 -10 5 -10 4 -1 -6 10 -11 15 -11 29 1 16 13 17 12
12 -9 -5 -18 -1 -26 17 -34 27 -12 24 -31 -3 -21 -13 4 -13 2 3 -10 11 -8 16
-19 12 -23 -4 -5 -13 -2 -18 6 -9 12 -10 12 -5 -3 4 -12 2 -17 -6 -14 -7 2
-12 13 -10 23 2 18 2 18 -8 2 -6 -10 -16 -18 -22 -18 -7 0 -7 4 1 13 6 8 8 17
4 20 -10 10 -33 8 -33 -3 0 -5 8 -7 18 -4 16 5 15 4 -1 -9 -18 -15 -18 -15 2
-22 12 -3 19 -10 16 -15 -3 -5 0 -12 6 -16 7 -4 9 -3 6 2 -3 6 3 11 15 11 15
2 18 -2 13 -15 -4 -9 -8 -22 -8 -29 0 -9 -6 -9 -19 -2 -10 6 -16 14 -13 19 3
5 -4 8 -15 7 -25 -2 -25 -6 -2 -24 15 -13 15 -13 -5 -3 -13 6 -23 15 -23 20 0
5 -7 7 -15 4 -14 -6 -13 -8 2 -20 16 -13 15 -13 -10 -2 -20 8 -24 14 -15 20 9
6 7 8 -7 5 -11 -2 -19 -10 -17 -17 2 -10 -3 -9 -17 4 -26 24 -20 30 31 32 22
1 34 -2 28 -6 -7 -5 1 -7 19 -6 36 1 39 6 11 24 -12 7 -17 18 -14 29 5 15 4
15 -4 3 -6 -8 -9 -17 -7 -20 2 -4 -10 -7 -27 -7 -28 0 -29 1 -12 14 10 7 13
13 7 13 -5 0 -18 -9 -28 -20 -11 -12 -27 -18 -41 -16 -27 5 -42 -9 -20 -17 8
-3 16 -2 18 3 2 5 8 -2 15 -16 10 -22 10 -24 -3 -14 -8 7 -14 9 -14 4 0 -5 -5
-2 -11 6 -8 11 -12 12 -16 3 -2 -7 -9 -13 -15 -13 -7 0 -6 5 1 14 8 10 9 16 1
21 -5 3 -10 2 -10 -3 0 -5 -10 -9 -22 -8 -13 1 -22 7 -21 14 4 16 -14 16 -21
0 -2 -7 -4 -3 -2 9 1 12 6 26 11 30 4 5 5 2 1 -5 -6 -9 -1 -11 18 -8 18 3 23
1 19 -10 -3 -8 -10 -14 -16 -14 -6 0 -8 -3 -5 -6 4 -3 17 0 30 7 12 7 29 14
36 15 20 4 22 8 12 24 -8 13 -10 12 -10 -3 0 -10 -4 -16 -10 -12 -5 3 -7 13
-4 23 5 16 5 16 -9 0 -13 -17 -15 -17 -31 0 -9 10 -13 22 -9 27 5 4 2 5 -5 1
-10 -6 -10 -11 -2 -21 9 -11 7 -14 -7 -13 -23 0 -59 -9 -75 -18 -7 -5 -8 -3
-3 6 6 10 3 12 -12 8 -15 -4 -20 -1 -19 11 1 9 -6 15 -16 15 -10 -1 -18 2 -18
7 0 5 7 9 16 9 8 0 12 5 9 10 -4 7 -13 6 -26 -1 -12 -6 -23 -8 -27 -5 -3 3 0
6 6 6 7 0 12 8 12 18 0 14 -2 15 -10 2 -8 -13 -10 -12 -10 3 0 12 -4 16 -12
11 -7 -4 -10 -4 -6 1 13 13 -11 44 -31 40 -14 -3 -18 1 -14 16 3 10 0 19 -6
19 -6 0 -11 5 -11 11 0 5 4 8 9 4 6 -3 9 4 8 15 -1 20 -7 23 -37 21 -10 0 -11
1 -2 5 6 3 12 10 12 15 0 4 -6 7 -12 5 -7 -1 -10 -1 -5 1 15 9 6 22 -10 17
-14 -5 -15 -4 -4 4 9 7 10 12 2 16 -6 4 -11 12 -11 19 0 6 7 1 16 -11 20 -30
39 -28 19 2 -9 13 -13 31 -9 41 5 12 4 16 -4 11 -13 -8 -24 8 -28 40 -2 23 19
39 37 28 5 -3 9 0 9 6 0 6 5 8 10 5 8 -5 7 -11 -1 -21 -10 -12 -14 -12 -20 -2
-4 7 -11 9 -15 5 -4 -4 -3 -12 3 -18 9 -9 18 -6 37 9 16 12 22 22 15 24 -15 5
-21 38 -8 38 5 0 9 -7 9 -15 0 -8 5 -15 10 -15 7 0 7 6 0 20 -13 24 -23 25
-41 3 -12 -15 -12 -16 1 -8 8 4 12 4 8 0 -5 -5 -20 -10 -35 -11 -26 -3 -26 -2
-8 8 11 6 26 20 33 29 10 15 17 16 37 7 13 -6 22 -16 18 -22 -3 -6 -2 -8 2 -4
5 5 10 20 11 35 2 23 1 25 -7 10 -8 -13 -14 -15 -28 -7 -10 5 -20 7 -23 5 -2
-2 -10 6 -17 18 -13 20 -13 21 2 8 14 -11 20 -11 34 0 15 12 16 12 10 -3 -3
-10 -2 -18 3 -18 6 0 10 7 10 16 0 8 4 13 9 9 5 -3 13 -1 16 5 5 8 12 7 23 -2
15 -12 16 -11 3 5 -9 12 -17 14 -26 7 -12 -10 -25 -4 -25 12 0 5 4 7 9 4 14
-9 32 20 24 39 -4 11 -3 16 4 12 5 -4 19 0 29 8 11 8 14 14 7 15 -7 0 -13 5
-13 12 0 6 3 8 7 5 7 -7 32 22 33 38 0 6 -5 3 -10 -5 -6 -9 -10 -10 -10 -3 0
6 5 15 10 18 6 3 10 11 10 18 0 8 -3 8 -12 -1 -7 -7 -17 -12 -23 -12 -5 0 3 9
19 19 17 11 34 17 40 14 5 -4 7 1 3 13 -7 18 -7 18 8 0 8 -11 16 -17 16 -13 1
4 3 12 4 17 1 6 3 15 4 21 0 6 8 9 16 5 8 -3 15 0 15 6 0 6 3 8 7 5 3 -4 16 1
27 10 19 16 19 16 7 1 -7 -9 -10 -21 -7 -27 4 -5 -3 -7 -16 -3 -13 3 -19 1
-15 -6 6 -8 42 -10 42 -2 0 1 8 3 17 5 10 2 20 -5 24 -18 6 -18 7 -18 16 -4 5
10 14 17 20 17 7 0 7 -5 -1 -14 -9 -11 -9 -16 0 -22 7 -4 9 -3 6 3 -4 6 3 19
14 29 20 18 21 18 38 -5 14 -18 20 -21 26 -11 5 9 4 11 -3 6 -7 -4 -12 -1 -12
8 0 9 -4 16 -8 16 -5 0 -17 7 -28 15 -21 16 -25 16 54 -1 12 -2 22 0 22 6 0 6
-6 8 -12 4 -9 -5 -9 -2 1 9 8 10 9 17 3 17 -6 0 -16 -8 -21 -17 -6 -10 -11
-13 -11 -7 0 14 -52 13 -68 -3 -10 -10 -10 -13 -1 -13 7 0 9 -3 6 -6 -4 -4
-13 -1 -22 6 -8 7 -15 8 -15 3 0 -5 -11 -9 -24 -9 -14 0 -22 4 -20 8 3 5 10 6
15 3 5 -4 9 4 10 17 0 16 2 19 7 8 8 -17 32 -25 32 -11 0 5 -6 12 -12 15 -7 3
-2 3 11 0 13 -4 21 -2 18 3 -7 11 23 11 41 -1 7 -4 15 0 19 10 4 11 8 13 11 6
3 -9 9 -9 24 -1z m-77 -50 c3 -5 2 -12 -3 -15 -5 -3 -9 1 -9 9 0 17 3 19 12 6z
m1021 -9 c-3 -3 -1 -11 4 -17 15 -18 -26 -53 -43 -36 -9 10 -8 11 8 5 17 -7
18 -6 7 8 -9 12 -10 18 -2 23 6 4 9 13 6 21 -3 8 0 11 10 7 8 -3 12 -8 10 -11z
m-1056 -6 c0 -3 -4 -8 -10 -11 -5 -3 -10 -1 -10 4 0 6 5 11 10 11 6 0 10 -2
10 -4z m600 -71 c0 -5 -5 -3 -10 5 -5 8 -10 20 -10 25 0 6 5 3 10 -5 5 -8 10
-19 10 -25z m-826 -21 c5 -13 4 -14 -7 -6 -11 10 -13 6 -12 -19 2 -38 -5 -41
-31 -13 -18 18 -19 24 -7 28 8 3 11 2 8 -3 -3 -5 -1 -12 5 -16 10 -6 14 7 11
33 -3 18 26 15 33 -4z m859 -9 c-3 -9 -8 -14 -10 -11 -3 3 -2 9 2 15 9 16 15
13 8 -4z m-19 -34 c-5 -6 -34 20 -34 30 0 5 8 1 18 -8 10 -10 17 -20 16 -22z
m-889 -38 c0 -16 -6 -28 -13 -28 -7 0 -21 -10 -31 -23 -16 -23 -18 -23 -31 -5
-8 10 -10 15 -6 11 5 -5 16 2 24 13 12 18 13 23 1 31 -10 7 -8 7 9 3 13 -4 22
-2 22 4 0 6 -4 11 -10 11 -5 0 -10 5 -10 12 0 9 3 9 12 0 19 -19 32 -14 17 6
-12 15 -12 16 1 5 9 -7 16 -25 15 -40z m885 21 c0 -2 -7 -4 -15 -4 -8 0 -15 4
-15 10 0 5 7 7 15 4 8 -4 15 -8 15 -10z m35 6 c-3 -5 -12 -10 -18 -10 -7 0 -6
4 3 10 19 12 23 12 15 0z m152 -17 c-4 -3 -2 -11 3 -18 7 -8 6 -12 -3 -12 -7
0 -14 9 -14 19 -1 10 3 18 9 18 6 0 8 -3 5 -7z m219 -5 c4 -6 3 -8 -3 -5 -6 4
-14 0 -17 -9 -4 -9 -9 -14 -13 -11 -3 4 0 13 7 22 15 18 17 18 26 3z m-387
-22 c9 -11 9 -16 -1 -22 -7 -4 -10 -4 -6 1 4 4 3 14 -3 22 -6 7 -9 13 -6 13 2
0 10 -6 16 -14z m408 -2 c-3 -3 -12 -4 -19 -1 -8 3 -5 6 6 6 11 1 17 -2 13 -5z
m-77 -14 c0 -5 -2 -10 -4 -10 -3 0 -8 5 -11 10 -3 6 -1 10 4 10 6 0 11 -4 11
-10z m-1320 -65 c11 -13 10 -14 -4 -9 -9 3 -16 10 -16 15 0 13 6 11 20 -6z
m-624 -130 c0 -19 -2 -35 -6 -35 -6 0 -6 56 -1 68 4 8 6 -2 7 -33z m4 -77 c0
-18 -2 -20 -9 -8 -6 8 -7 18 -5 22 9 14 14 9 14 -14z m640 -82 c0 -3 -4 -8
-10 -11 -5 -3 -10 -1 -10 4 0 6 5 11 10 11 6 0 10 -2 10 -4z m880 -46 c0 -5
-5 -10 -11 -10 -5 0 -7 5 -4 10 3 6 8 10 11 10 2 0 4 -4 4 -10z m-64 -30 c0
-18 -19 -21 -33 -5 -5 4 -2 5 6 0 10 -6 13 -4 9 7 -4 8 -1 15 6 15 6 0 12 -8
12 -17z m33 6 c9 -11 9 -16 -1 -22 -7 -4 -10 -4 -6 1 4 4 3 14 -3 22 -6 7 -9
13 -6 13 2 0 10 -6 16 -14z m68 -23 c0 -9 -4 -10 -14 -2 -7 6 -13 12 -13 14 0
1 6 2 13 2 8 0 14 -6 14 -14z m563 13 c0 -2 -7 -7 -16 -10 -8 -3 -12 -2 -9 4
6 10 25 14 25 6z m-856 -32 c9 -3 16 -11 16 -16 0 -6 -8 -7 -17 -4 -15 6 -15
5 1 -13 17 -18 20 -19 42 -5 30 20 51 9 30 -15 -9 -10 -13 -22 -9 -27 4 -5 1
-3 -7 4 -21 19 -42 15 -36 -6 4 -12 1 -19 -7 -19 -8 0 -13 9 -12 21 0 12 -4
28 -11 36 -6 8 -11 23 -11 33 0 19 0 19 21 11z m224 -17 c17 -18 19 -24 7 -24
-8 0 -13 3 -10 5 3 3 -2 14 -12 24 -24 27 -10 22 15 -5z m67 4 c3 -5 2 -12 -3
-15 -5 -3 -9 1 -9 9 0 17 3 19 12 6z m-91 -17 c3 -8 2 -12 -4 -9 -6 3 -10 10
-10 16 0 14 7 11 14 -7z m686 -18 c0 -11 -19 -15 -25 -6 -3 5 1 10 9 10 9 0
16 -2 16 -4z m-693 -12 c-3 -3 -12 -4 -19 -1 -8 3 -5 6 6 6 11 1 17 -2 13 -5z
m-207 -24 c8 -5 11 -10 6 -10 -5 0 -3 -6 3 -14 9 -11 8 -17 -4 -29 -17 -17
-20 -31 -5 -22 6 3 10 1 10 -5 0 -7 -6 -10 -12 -7 -8 2 -12 18 -11 36 1 17 -2
29 -8 26 -5 -4 -9 -15 -9 -26 0 -10 -4 -19 -9 -19 -14 0 -8 34 8 46 8 6 11 16
7 22 -9 14 4 15 24 2z m215 -10 c-3 -5 -12 -10 -18 -10 -7 0 -6 4 3 10 19 12
23 12 15 0z m65 4 c0 -8 -19 -13 -24 -6 -3 5 1 9 9 9 8 0 15 -2 15 -3z m-670
-24 c0 -5 -7 -7 -15 -4 -8 4 -15 8 -15 10 0 2 7 4 15 4 8 0 15 -4 15 -10z
m640 6 c0 -2 -7 -7 -16 -10 -8 -3 -12 -2 -9 4 6 10 25 14 25 6z m-126 -44 c3
-5 -1 -9 -9 -9 -8 0 -12 4 -9 9 3 4 7 8 9 8 2 0 6 -4 9 -8z m-154 -22 c0 -5
-2 -10 -4 -10 -3 0 -8 5 -11 10 -3 6 -1 10 4 10 6 0 11 -4 11 -10z m-1060 -56
c0 -8 -5 -12 -10 -9 -6 4 -8 11 -5 16 9 14 15 11 15 -7z"/>
<path d="M1229 1557 c-6 -9 -7 -22 -4 -28 4 -6 -3 -7 -22 -3 -15 4 -25 4 -21
0 9 -11 78 -15 72 -5 -3 5 0 9 5 9 6 0 11 -5 11 -11 0 -5 4 -8 9 -5 5 3 11 -1
15 -9 4 -12 10 -13 31 -3 14 6 24 17 21 24 -3 8 0 11 10 7 7 -3 14 1 14 8 0
16 13 3 16 -17 2 -10 -3 -14 -13 -10 -13 5 -14 4 -3 -9 7 -8 22 -15 33 -15 11
0 18 -3 15 -6 -3 -3 5 -16 19 -30 26 -26 43 -33 23 -9 -8 10 -9 15 -2 15 10 0
32 -30 32 -43 0 -8 -36 -4 -49 7 -11 8 -13 8 -8 0 4 -7 0 -14 -8 -18 -17 -6
-20 -26 -4 -26 5 0 8 4 5 9 -3 5 1 12 10 15 11 4 15 2 11 -8 -4 -11 -1 -13 11
-9 14 6 15 4 4 -9 -14 -17 -55 -16 -77 2 -11 9 -15 9 -15 1 0 -6 5 -11 11 -11
6 0 9 -8 7 -18 -4 -12 1 -18 13 -18 12 0 15 4 9 11 -9 10 7 12 40 6 3 -1 -2
-6 -10 -11 -14 -9 -4 -9 39 -1 2 1 -2 7 -8 14 -6 8 -8 17 -4 20 9 9 23 9 22 0
-1 -5 -1 -17 0 -28 2 -19 2 -19 12 -2 6 9 14 15 19 12 5 -3 11 -1 15 5 4 6 11
7 17 4 6 -4 8 -2 5 3 -8 12 20 27 43 24 9 -1 5 7 -10 19 l-25 21 25 -6 c17 -4
21 -3 11 3 -9 7 -10 12 -2 16 11 7 15 -6 11 -33 -1 -12 1 -13 14 -2 14 12 14
15 -2 36 -14 19 -18 20 -25 8 -11 -18 -31 -3 -53 39 -8 16 -19 26 -24 23 -6
-4 -10 -1 -10 5 0 7 -7 10 -15 7 -8 -4 -17 -2 -21 4 -3 6 -13 8 -21 5 -8 -3
-20 -3 -26 1 -7 4 -19 8 -27 8 -8 0 -14 6 -12 13 3 17 -15 15 -22 -3 -6 -17
-37 -9 -33 8 1 7 -16 11 -46 12 -37 0 -51 -4 -58 -18z m17 -4 c-6 -17 -5 -17
8 0 8 10 16 13 18 7 1 -5 13 -12 26 -15 12 -2 20 0 17 5 -3 5 -1 11 4 14 15
10 6 -25 -10 -35 -10 -8 -7 -9 11 -4 23 6 24 5 7 -9 -17 -13 -21 -12 -38 5
-13 13 -27 18 -40 14 -21 -7 -22 -5 -13 19 8 22 18 20 10 -1z m204 -28 c6 4
17 1 25 -5 8 -7 15 -9 15 -5 0 4 7 2 15 -5 8 -7 15 -9 15 -5 0 4 11 -9 25 -30
15 -20 24 -40 21 -43 -3 -3 -1 -11 4 -17 11 -14 -30 -47 -65 -52 -20 -4 -20
-4 0 12 14 11 16 15 5 14 -28 -3 -40 1 -40 12 0 5 4 8 9 4 19 -11 22 16 5 45
-13 21 -21 26 -30 19 -15 -13 -39 25 -28 44 5 9 4 9 -7 0 -7 -7 -17 -13 -21
-13 -11 0 -6 23 7 32 5 4 15 2 22 -3 7 -6 17 -8 23 -4z"/>
<path d="M1440 1510 c-11 -7 -11 -10 -2 -10 7 0 11 -4 8 -9 -3 -4 6 -7 19 -5
14 1 27 -2 31 -7 3 -5 10 -6 16 -3 7 5 8 2 4 -5 -5 -7 -15 -10 -25 -7 -15 6
-15 5 0 -6 9 -7 18 -17 20 -23 2 -5 7 -9 11 -8 4 2 5 -12 3 -30 l-4 -32 18 22
c10 12 22 19 26 15 5 -4 4 0 -1 8 -4 8 -9 21 -9 27 0 18 -55 74 -65 68 -5 -3
-11 -1 -15 5 -8 12 -16 12 -35 0z m35 -10 c3 -6 -1 -7 -9 -4 -18 7 -21 14 -7
14 6 0 13 -4 16 -10z m75 -61 c0 -4 -8 -7 -19 -6 -11 1 -17 7 -16 17 2 8 4 17
4 19 2 7 31 -21 31 -30z m-7 -34 c-3 -9 -8 -14 -10 -11 -3 3 -2 9 2 15 9 16
15 13 8 -4z"/>
<path d="M956 1522 c-3 -5 4 -12 15 -15 16 -4 19 -11 15 -29 -3 -13 -3 -17 0
-10 3 6 9 10 13 8 4 -3 8 5 8 16 1 11 -1 17 -4 14 -4 -3 -14 1 -24 10 -10 9
-20 11 -23 6z"/>
<path d="M1027 1504 c-4 -4 -7 -12 -7 -18 0 -6 5 -4 10 4 9 13 11 13 21 0 9
-12 10 -12 7 -1 -5 17 -21 25 -31 15z"/>
<path d="M949 1493 c-1 -5 -1 -11 0 -15 0 -5 -3 -8 -9 -8 -5 0 -10 6 -10 13 0
9 -3 8 -9 -2 -7 -11 -10 -11 -15 0 -3 8 -3 3 0 -10 4 -16 3 -21 -5 -17 -16 10
-13 0 5 -18 8 -9 21 -16 27 -16 9 0 8 3 -1 8 -9 7 -7 13 9 28 22 19 22 19 14
-6 -4 -14 -4 -22 0 -18 12 11 16 68 5 68 -6 0 -11 -3 -11 -7z m-28 -46 c-10
-9 -11 -8 -5 6 3 10 9 15 12 12 3 -3 0 -11 -7 -18z"/>
<path d="M1231 1484 c0 -11 3 -14 6 -6 3 7 2 16 -1 19 -3 4 -6 -2 -5 -13z"/>
<path d="M1345 1489 c-4 -6 -4 -13 -1 -16 3 -4 6 -1 6 6 0 7 5 9 12 5 7 -4 8
-3 4 4 -9 15 -13 15 -21 1z"/>
<path d="M1119 1473 c-13 -16 -12 -17 4 -4 14 11 20 11 35 0 15 -13 16 -12 3
4 -7 9 -17 17 -21 17 -4 0 -14 -8 -21 -17z"/>
<path d="M1250 1481 c0 -6 4 -13 10 -16 6 -3 7 1 4 9 -7 18 -14 21 -14 7z"/>
<path d="M1320 1474 c0 -9 -5 -12 -12 -8 -7 4 -9 3 -5 -1 15 -17 35 -13 30 6
-6 23 -13 25 -13 3z"/>
<path d="M1074 1466 c1 -8 5 -18 8 -22 4 -3 5 1 4 10 -1 8 -5 18 -8 22 -4 3
-5 -1 -4 -10z"/>
<path d="M1019 1468 c-6 -21 -5 -38 1 -38 5 0 8 9 7 20 -1 17 -5 26 -8 18z"/>
<path d="M1370 1463 c5 -2 8 -9 5 -13 -3 -5 -1 -11 4 -14 5 -4 8 2 7 11 -2 9
-8 18 -15 19 -6 1 -7 0 -1 -3z"/>
<path d="M1404 1438 c1 -34 2 -34 17 -7 6 13 7 19 1 15 -6 -3 -12 0 -15 6 -2
7 -4 1 -3 -14z"/>
<path d="M1260 1445 c0 -2 6 -8 13 -14 10 -8 14 -7 14 2 0 8 -6 14 -14 14 -7
0 -13 -1 -13 -2z"/>
<path d="M1350 1445 c0 -5 5 -17 10 -25 5 -8 10 -10 10 -5 0 6 -5 17 -10 25
-5 8 -10 11 -10 5z"/>
<path d="M887 1413 c-11 -11 -8 -21 9 -27 14 -5 15 -4 5 8 -9 11 -9 15 1 19 7
3 8 6 2 6 -6 1 -14 -2 -17 -6z"/>
<path d="M1380 1411 c0 -6 4 -13 10 -16 6 -3 7 1 4 9 -7 18 -14 21 -14 7z"/>
<path d="M1336 1402 c-3 -5 1 -9 9 -9 8 0 12 4 9 9 -3 4 -7 8 -9 8 -2 0 -6 -4
-9 -8z"/>
<path d="M1620 1395 c-7 -9 -19 -14 -27 -11 -13 5 -31 -20 -21 -30 7 -6 77 38
78 49 0 12 -17 8 -30 -8z"/>
<path d="M1276 1382 c-2 -4 -1 -14 4 -22 7 -11 9 -9 7 8 -1 24 -3 26 -11 14z"/>
<path d="M1310 1385 c0 -5 5 -17 10 -25 5 -8 10 -10 10 -5 0 6 -5 17 -10 25
-5 8 -10 11 -10 5z"/>
<path d="M870 1358 c0 -4 4 -8 9 -8 6 0 12 4 15 8 3 5 -1 9 -9 9 -8 0 -15 -4
-15 -9z"/>
<path d="M1344 1345 c-18 -14 -18 -14 4 -8 12 3 22 9 22 14 0 12 -3 11 -26 -6z"/>
<path d="M846 1318 c3 -5 10 -6 15 -3 13 9 11 12 -6 12 -8 0 -12 -4 -9 -9z"/>
<path d="M876 1313 c-6 -14 -5 -15 5 -6 7 7 10 15 7 18 -3 3 -9 -2 -12 -12z"/>
<path d="M765 1148 c-22 -17 -31 -19 -46 -10 -20 13 -24 6 -10 -16 12 -20 17
-19 43 4 13 12 32 26 43 32 11 6 15 12 9 12 -6 0 -24 -10 -39 -22z"/>
<path d="M1190 1150 c0 -5 5 -10 11 -10 5 0 7 5 4 10 -3 6 -8 10 -11 10 -2 0
-4 -4 -4 -10z"/>
<path d="M755 1110 c-16 -16 -25 -33 -22 -37 4 -3 7 -1 7 5 0 6 7 9 15 6 8 -4
15 -10 15 -16 0 -5 -4 -7 -9 -3 -5 3 -12 1 -15 -4 -4 -5 -2 -13 4 -16 8 -5 8
-11 0 -20 -8 -9 -6 -17 6 -29 15 -16 18 -16 35 0 11 9 19 21 19 27 0 5 -8 0
-17 -11 -17 -20 -19 -20 -33 -5 -13 15 -12 16 3 10 9 -3 19 -1 23 5 4 6 3 8
-3 5 -16 -10 -24 18 -10 32 9 10 8 15 -5 25 -10 7 -15 16 -11 19 3 4 12 2 18
-3 8 -7 18 -3 31 13 19 22 19 22 -2 4 -23 -19 -40 -12 -23 10 21 25 3 13 -26
-17z"/>
<path d="M1150 1098 c0 -4 4 -8 9 -8 6 0 12 4 15 8 3 5 -1 9 -9 9 -8 0 -15 -4
-15 -9z"/>
<path d="M1195 1100 c3 -5 8 -10 11 -10 2 0 4 5 4 10 0 6 -5 10 -11 10 -5 0
-7 -4 -4 -10z"/>
<path d="M796 1073 c-6 -14 -5 -15 5 -6 7 7 10 15 7 18 -3 3 -9 -2 -12 -12z"/>
<path d="M836 1033 c-6 -14 -5 -15 5 -6 7 7 10 15 7 18 -3 3 -9 -2 -12 -12z"/>
<path d="M1195 1040 c3 -5 8 -10 11 -10 2 0 4 5 4 10 0 6 -5 10 -11 10 -5 0
-7 -4 -4 -10z"/>
<path d="M815 1000 c-3 -5 -1 -10 4 -10 6 0 11 5 11 10 0 6 -2 10 -4 10 -3 0
-8 -4 -11 -10z"/>
<path d="M781 971 c-11 -7 -10 -11 5 -19 18 -10 26 -12 42 -12 4 0 0 -5 -8
-10 -25 -16 3 -10 30 6 15 9 17 13 6 10 -10 -4 -24 -2 -30 3 -6 5 -14 10 -18
10 -5 1 -11 1 -15 2 -5 0 1 4 12 9 13 6 15 9 5 9 -8 0 -21 -3 -29 -8z"/>
<path d="M777 920 c3 -11 9 -17 14 -15 4 3 16 -6 25 -20 9 -13 20 -23 24 -20
5 3 12 -4 15 -16 4 -12 10 -17 14 -12 3 5 14 1 24 -9 10 -11 12 -18 5 -18 -8
0 -7 -6 4 -16 21 -22 64 -26 79 -8 16 19 4 30 -16 14 -21 -18 -19 -4 6 33 l21
32 -27 -29 c-15 -17 -24 -35 -20 -45 3 -9 -4 -5 -15 9 -11 14 -18 31 -15 38 2
6 0 12 -4 12 -5 0 -11 -5 -13 -10 -2 -6 -9 -1 -17 11 -11 19 -11 21 3 16 13
-5 15 -3 7 12 -6 10 -7 21 -4 25 3 3 1 6 -6 6 -6 0 -11 -7 -9 -16 2 -10 -3
-19 -11 -22 -8 -3 -11 0 -7 7 4 6 -4 16 -21 23 -15 7 -32 18 -36 25 -12 20
-26 15 -20 -7z m73 -35 c0 -12 -19 -12 -23 0 -4 9 -1 12 9 8 7 -3 14 -7 14 -8z"/>
<path d="M850 920 c-9 -6 -10 -10 -3 -10 6 0 15 5 18 10 8 12 4 12 -15 0z"/>
<path d="M1469 900 c-5 -39 -5 -46 2 -55 7 -9 9 -17 9 -30 0 -3 9 -1 20 5 20
11 19 30 -1 30 -6 0 -8 -4 -4 -9 3 -5 1 -12 -4 -16 -6 -3 -8 4 -6 15 2 11 1
18 -3 16 -5 -3 -9 5 -9 16 -2 20 -1 20 12 2 7 -11 16 -16 19 -13 4 3 -2 17
-13 30 -15 18 -21 20 -22 9z"/>
<path d="M1255 889 c-4 -6 -5 -12 -2 -15 2 -3 7 2 10 11 7 17 1 20 -8 4z"/>
<path d="M933 839 c-2 -23 3 -25 10 -4 4 8 3 16 -1 19 -4 3 -9 -4 -9 -15z"/>
<path d="M1034 815 c0 -14 4 -25 8 -25 4 0 7 9 5 20 -5 29 -13 33 -13 5z"/>
<path d="M1070 820 c0 -5 5 -10 11 -10 5 0 7 5 4 10 -3 6 -8 10 -11 10 -2 0
-4 -4 -4 -10z"/>
<path d="M1105 820 c-3 -6 1 -7 9 -4 18 7 21 14 7 14 -6 0 -13 -4 -16 -10z"/>
<path d="M1145 820 c-3 -6 1 -7 9 -4 18 7 21 14 7 14 -6 0 -13 -4 -16 -10z"/>
<path d="M1230 821 c0 -6 4 -13 10 -16 6 -3 7 1 4 9 -7 18 -14 21 -14 7z"/>
<path d="M1193 788 c-2 -18 0 -20 7 -8 12 18 13 30 2 30 -4 0 -9 -10 -9 -22z"/>
<path d="M1266 798 c3 -4 9 -8 15 -8 5 0 9 4 9 8 0 5 -7 9 -15 9 -8 0 -12 -4
-9 -9z"/>
<path d="M1116 765 c-3 -8 -1 -15 4 -15 6 0 10 7 10 15 0 8 -2 15 -4 15 -2 0
-6 -7 -10 -15z"/>
<path d="M1476 772 c-3 -5 1 -9 9 -9 8 0 12 4 9 9 -3 4 -7 8 -9 8 -2 0 -6 -4
-9 -8z"/>
<path d="M1427 749 c7 -7 15 -10 18 -7 3 3 -2 9 -12 12 -14 6 -15 5 -6 -5z"/>
<path d="M1136 708 c3 -5 10 -6 15 -3 13 9 11 12 -6 12 -8 0 -12 -4 -9 -9z"/>
<path d="M1280 705 c-7 -9 -8 -15 -2 -15 5 0 12 7 16 15 3 8 4 15 2 15 -2 0
-9 -7 -16 -15z"/>
<path d="M2126 1511 c-4 -5 -2 -12 3 -15 5 -4 12 -2 15 3 4 5 2 12 -3 15 -5 4
-12 2 -15 -3z"/>
<path d="M774 1328 c-19 -23 -19 -23 2 -5 11 9 24 14 27 10 4 -3 7 -1 7 5 0
19 -15 14 -36 -10z"/>
<path d="M1421 811 c-7 -5 -9 -11 -5 -14 5 -3 15 1 22 9 14 16 5 18 -17 5z"/>
<path d="M1310 2101 c0 -6 4 -13 10 -16 6 -3 7 1 4 9 -7 18 -14 21 -14 7z"/>
<path d="M1785 2100 c-3 -6 1 -7 9 -4 18 7 21 14 7 14 -6 0 -13 -4 -16 -10z"/>
<path d="M1709 2083 c-13 -16 -12 -17 4 -4 16 13 21 21 13 21 -2 0 -10 -8 -17
-17z"/>
<path d="M1990 2089 c0 -5 5 -7 10 -4 6 3 10 1 10 -5 0 -6 5 -8 11 -4 8 4 7 9
-2 15 -19 12 -29 11 -29 -2z"/>
<path d="M1129 2077 c6 -8 7 -18 3 -22 -4 -5 -1 -5 6 -1 10 6 10 11 1 22 -6 8
-14 14 -16 14 -3 0 0 -6 6 -13z"/>
<path d="M1183 2078 c-8 -14 -10 -19 -12 -43 0 -8 -5 -15 -11 -15 -5 0 -7 8
-4 18 5 14 4 14 -4 3 -8 -12 -14 -12 -25 -3 -11 10 -16 7 -24 -11 -9 -19 -8
-23 8 -24 10 -1 21 3 24 8 4 5 11 7 16 4 5 -4 18 -8 29 -10 16 -3 18 -1 11 14
-11 19 -10 39 2 59 5 6 6 12 3 12 -3 0 -8 -6 -13 -12z m-53 -58 c0 -5 -4 -10
-10 -10 -5 0 -10 5 -10 10 0 6 5 10 10 10 6 0 10 -4 10 -10z"/>
<path d="M1241 2076 c-8 -10 -9 -16 -1 -21 6 -4 9 -1 8 7 -2 7 3 12 10 10 8
-1 11 2 7 8 -8 13 -10 13 -24 -4z"/>
<path d="M1670 2079 c0 -5 5 -7 10 -4 6 3 10 8 10 11 0 2 -4 4 -10 4 -5 0 -10
-5 -10 -11z"/>
<path d="M2073 2071 c2 -31 22 -32 48 -3 l24 27 -28 -25 c-25 -22 -28 -23 -25
-6 1 10 -2 21 -9 23 -7 3 -11 -4 -10 -16z"/>
<path d="M1075 2071 c-6 -11 13 -26 22 -17 4 3 1 6 -6 6 -7 0 -9 5 -6 10 3 6
4 10 1 10 -3 0 -7 -4 -11 -9z"/>
<path d="M1295 2071 c-3 -5 -2 -12 3 -15 5 -3 9 1 9 9 0 17 -3 19 -12 6z"/>
<path d="M1344 2048 c0 -10 1 -18 3 -18 1 0 7 8 12 18 7 13 6 19 -2 19 -7 0
-13 -9 -13 -19z"/>
<path d="M1420 2060 c8 -5 20 -10 25 -10 6 0 3 5 -5 10 -8 5 -19 10 -25 10 -5
0 -3 -5 5 -10z"/>
<path d="M2215 2061 c-3 -5 -2 -12 3 -15 5 -3 9 1 9 9 0 17 -3 19 -12 6z"/>
<path d="M859 2058 c-7 -26 -3 -41 14 -53 17 -12 18 -15 5 -15 -9 0 -19 4 -22
9 -8 12 -39 7 -44 -7 -2 -7 1 -12 8 -12 6 0 8 -5 4 -12 -5 -7 -3 -8 7 -3 7 5
20 10 29 11 41 7 54 12 58 22 2 7 8 10 13 7 5 -4 6 1 2 11 -5 14 -8 13 -19 -7
-7 -13 -13 -19 -14 -13 0 7 -9 14 -20 17 -13 3 -18 11 -15 26 2 12 2 21 -1 21
-2 0 -4 -1 -5 -2z m-3 -70 c3 -4 -1 -5 -10 -4 -8 1 -18 5 -22 8 -3 4 1 5 10 4
8 -1 18 -5 22 -8z"/>
<path d="M1030 2053 c5 -2 10 -9 10 -14 0 -6 -8 -6 -19 1 -15 7 -22 7 -27 -2
-4 -7 -3 -10 1 -5 5 4 18 1 30 -7 20 -13 22 -13 21 6 -1 12 -7 23 -14 24 -7 1
-8 0 -2 -3z"/>
<path d="M1261 2053 c0 -6 -4 -20 -8 -30 -3 -10 -3 -15 2 -11 4 4 15 3 25 -2
13 -7 16 -5 15 10 -1 11 -5 23 -10 27 -4 5 -5 3 -1 -4 3 -6 2 -14 -3 -17 -5
-4 -12 4 -14 16 -2 13 -5 18 -6 11z"/>
<path d="M1691 2052 c-1 -7 -8 -20 -16 -29 -8 -8 -13 -19 -10 -24 4 -5 2 -9
-4 -9 -15 0 -23 18 -11 25 5 3 10 14 9 23 0 14 -2 14 -6 2 -10 -27 -24 -39
-39 -33 -7 3 -12 9 -9 13 9 15 -21 4 -48 -17 -15 -12 -23 -24 -18 -27 5 -3 11
0 14 6 3 10 7 10 18 1 10 -8 20 -9 29 -3 20 13 31 12 28 -1 -4 -17 39 -21 55
-4 8 8 17 12 20 9 3 -3 4 3 3 13 0 10 5 17 12 16 14 -3 17 13 4 21 -5 3 -15
-6 -22 -19 -7 -13 -17 -22 -22 -19 -5 3 -2 14 7 24 10 11 15 25 12 32 -4 11
-6 11 -6 0z m-93 -63 c-16 -10 -33 5 -23 21 5 8 11 8 21 -1 12 -10 12 -14 2
-20z m47 2 c3 -5 2 -12 -3 -15 -5 -3 -9 1 -9 9 0 17 3 19 12 6z"/>
<path d="M796 2034 c-8 -20 -8 -24 2 -24 4 0 8 9 9 20 2 24 -3 26 -11 4z"/>
<path d="M905 2039 c-4 -6 -5 -12 -2 -15 2 -3 7 2 10 11 7 17 1 20 -8 4z"/>
<path d="M1063 2028 c-1 -11 1 -16 5 -12 4 5 11 12 15 15 5 3 2 9 -5 12 -9 3
-14 -3 -15 -15z"/>
<path d="M1411 2034 c0 -11 3 -14 6 -6 3 7 2 16 -1 19 -3 4 -6 -2 -5 -13z"/>
<path d="M1490 2038 c0 -11 12 -10 30 2 12 7 10 9 -8 7 -12 0 -22 -5 -22 -9z"/>
<path d="M1547 2039 c7 -7 15 -10 18 -7 3 3 -2 9 -12 12 -14 6 -15 5 -6 -5z"/>
<path d="M1617 2033 c3 -7 6 -13 8 -13 2 0 5 6 8 13 3 8 -1 14 -8 14 -7 0 -11
-6 -8 -14z"/>
<path d="M2185 2040 c-3 -5 -1 -10 5 -10 6 0 8 -5 4 -12 -4 -7 -3 -8 4 -4 6 4
9 13 5 21 -6 18 -10 19 -18 5z"/>
<path d="M1430 2021 c-7 -13 -7 -22 0 -26 12 -7 12 -7 15 23 3 27 -1 28 -15 3z"/>
<path d="M706 2018 c3 -5 10 -6 15 -3 13 9 11 12 -6 12 -8 0 -12 -4 -9 -9z"/>
<path d="M750 2020 c-9 -6 -10 -10 -3 -10 6 0 15 5 18 10 8 12 4 12 -15 0z"/>
<path d="M1464 2012 c2 -9 8 -18 14 -20 17 -5 15 25 -2 31 -9 4 -13 0 -12 -11z"/>
<path d="M756 1995 c-10 -8 -24 -11 -30 -8 -6 4 -3 -3 7 -14 18 -21 47 -27 47
-9 0 6 4 5 9 -3 6 -9 11 -10 15 -2 4 6 2 11 -4 11 -6 0 -8 5 -4 11 3 6 -5 4
-19 -6 -15 -10 -28 -12 -31 -6 -4 5 3 12 14 16 11 3 20 11 20 16 0 12 -1 11
-24 -6z"/>
<path d="M675 1991 c-9 -15 15 -25 28 -12 9 9 7 10 -7 5 -13 -5 -17 -4 -12 4
4 7 5 12 2 12 -3 0 -7 -4 -11 -9z"/>
<path d="M566 1962 c-3 -5 1 -9 9 -9 8 0 12 4 9 9 -3 4 -7 8 -9 8 -2 0 -6 -4
-9 -8z"/>
<path d="M616 1958 c3 -4 12 -8 20 -8 8 0 14 4 14 8 0 4 -9 8 -19 8 -11 0 -17
-4 -15 -8z"/>
<path d="M487 1939 c7 -7 15 -10 18 -7 3 3 -2 9 -12 12 -14 6 -15 5 -6 -5z"/>
<path d="M515 1910 c-3 -5 -1 -10 4 -10 6 0 11 5 11 10 0 6 -2 10 -4 10 -3 0
-8 -4 -11 -10z"/>
<path d="M390 1886 c0 -2 7 -7 16 -10 8 -3 12 -2 9 4 -6 10 -25 14 -25 6z"/>
<path d="M2313 1875 c0 -8 4 -12 9 -9 5 3 6 10 3 15 -9 13 -12 11 -12 -6z"/>
<path d="M336 1847 c3 -10 9 -15 12 -12 3 3 0 11 -7 18 -10 9 -11 8 -5 -6z"/>
<path d="M2291 1804 c0 -11 3 -14 6 -6 3 7 2 16 -1 19 -3 4 -6 -2 -5 -13z"/>
<path d="M2283 1761 c-18 -15 -20 -20 -8 -25 8 -3 14 0 12 7 -1 7 3 11 9 10 6
-1 11 5 11 13 0 8 -1 14 -1 14 -1 -1 -11 -9 -23 -19z"/>
<path d="M275 1760 c-2 -3 5 -7 16 -7 10 -1 19 2 19 6 0 9 -29 10 -35 1z"/>
<path d="M2239 1758 c-6 -21 -5 -38 1 -38 5 0 8 9 7 20 -1 17 -5 26 -8 18z"/>
<path d="M286 1705 c-5 -13 -10 -14 -28 -5 -22 11 -22 11 -3 -5 17 -13 18 -19
7 -35 -11 -19 -11 -19 7 -8 11 7 17 16 14 20 -2 5 1 16 8 24 6 8 10 17 7 20
-3 3 -8 -2 -12 -11z"/>
<path d="M2256 1683 c-6 -14 -5 -15 5 -6 7 7 10 15 7 18 -3 3 -9 -2 -12 -12z"/>
<path d="M214 1678 c-4 -7 -4 -10 1 -6 4 4 14 3 21 -3 9 -7 14 -6 20 3 4 7 4
10 -1 6 -4 -4 -14 -3 -21 3 -9 7 -14 6 -20 -3z"/>
<path d="M2274 1668 c-19 -23 -19 -23 2 -5 11 9 24 14 29 10 4 -5 5 -2 1 5 -9
16 -10 16 -32 -10z"/>
<path d="M193 1599 c9 -5 17 -15 17 -21 0 -7 -5 -6 -14 1 -12 10 -17 8 -25 -7
-8 -15 -7 -21 4 -26 19 -7 48 22 41 41 -3 8 -6 17 -6 19 0 2 -8 4 -17 4 -17
-1 -17 -1 0 -11z m2 -28 c3 -5 1 -12 -5 -16 -5 -3 -10 1 -10 9 0 18 6 21 15 7z"/>
<path d="M2210 1570 c-6 -12 -5 -17 5 -17 7 0 11 6 8 13 -3 9 2 12 16 9 11 -2
23 0 25 4 3 4 -7 7 -20 7 -14 0 -29 -7 -34 -16z"/>
<path d="M114 1553 c16 -20 36 -23 36 -6 0 4 -3 3 -7 0 -3 -4 -16 1 -27 10
-21 18 -21 18 -2 -4z"/>
<path d="M145 1523 c-14 -11 -15 -14 -4 -10 9 3 23 0 30 -6 11 -10 11 -9 1 4
-6 9 -9 19 -5 22 12 13 -2 6 -22 -10z"/>
<path d="M117 1489 c4 -13 8 -18 11 -10 2 7 -1 18 -6 23 -8 8 -9 4 -5 -13z"/>
<path d="M101 1474 c0 -11 3 -14 6 -6 3 7 2 16 -1 19 -3 4 -6 -2 -5 -13z"/>
<path d="M2156 1465 c-15 -23 -15 -26 -1 -31 12 -5 13 -10 4 -20 -13 -15 -3
-37 13 -28 6 4 20 7 31 8 11 1 22 7 23 14 1 7 0 8 -3 2 -10 -20 -20 -9 -18 20
1 16 -2 27 -7 24 -5 -3 -6 -14 -3 -24 3 -10 0 -22 -7 -26 -7 -4 -10 -4 -6 1 4
4 3 14 -3 22 -9 10 -8 17 2 30 10 11 10 14 2 9 -7 -4 -13 -3 -13 3 0 5 6 12
13 14 7 4 8 6 1 6 -7 1 -19 -10 -28 -24z m17 -60 c-3 -9 -8 -14 -10 -11 -3 3
-2 9 2 15 9 16 15 13 8 -4z"/>
<path d="M2212 1481 c-11 -7 -11 -9 0 -14 9 -3 15 1 15 9 0 8 -1 14 -1 14 -1
0 -7 -4 -14 -9z"/>
<path d="M130 1449 c0 -5 -6 -7 -12 -3 -10 6 -10 4 0 -7 17 -19 15 -34 -3 -19
-9 7 -18 10 -21 7 -3 -3 3 -10 15 -16 21 -12 29 -6 36 29 2 11 0 20 -6 20 -5
0 -9 -5 -9 -11z"/>
<path d="M87 1399 c7 -7 15 -10 18 -7 3 3 -2 9 -12 12 -14 6 -15 5 -6 -5z"/>
<path d="M2270 1379 c0 -5 5 -7 10 -4 6 3 10 8 10 11 0 2 -4 4 -10 4 -5 0 -10
-5 -10 -11z"/>
<path d="M85 1251 c-3 -5 -2 -12 3 -15 5 -3 9 1 9 9 0 17 -3 19 -12 6z"/>
<path d="M2410 1216 c0 -2 8 -10 18 -17 15 -13 16 -12 3 4 -13 16 -21 21 -21
13z"/>
<path d="M2412 1160 c0 -14 2 -19 5 -12 2 6 2 18 0 25 -3 6 -5 1 -5 -13z"/>
<path d="M2390 1120 c0 -5 5 -10 10 -10 6 0 10 5 10 10 0 6 -4 10 -10 10 -5 0
-10 -4 -10 -10z"/>
<path d="M2416 1082 c-2 -4 -1 -14 4 -22 7 -11 9 -9 7 8 -1 24 -3 26 -11 14z"/>
<path d="M2400 1020 c-12 -7 -12 -11 -2 -20 6 -5 10 -7 7 -4 -3 4 0 13 6 21
13 15 10 16 -11 3z"/>
<path d="M87 924 c5 -14 33 -27 41 -19 3 3 0 5 -7 5 -7 0 -11 6 -8 13 3 7 -3
13 -13 13 -10 0 -16 -6 -13 -12z"/>
<path d="M2303 893 c-7 -2 -13 -11 -13 -19 0 -8 -4 -14 -10 -14 -5 0 -8 6 -6
13 1 6 1 9 -1 4 -3 -4 -10 -4 -16 -1 -7 4 -4 -2 6 -12 18 -19 19 -19 33 1 9
11 20 19 25 17 6 -1 8 2 4 8 -3 5 -7 10 -8 9 -1 0 -8 -3 -14 -6z"/>
<path d="M2350 891 c0 -6 4 -13 10 -16 6 -3 7 1 4 9 -7 18 -14 21 -14 7z"/>
<path d="M104 883 c3 -3 -2 -12 -12 -20 -15 -13 -15 -13 4 -4 28 13 39 2 16
-16 -16 -14 -16 -14 0 -9 10 3 20 1 23 -4 3 -5 -3 -11 -12 -13 -17 -4 -17 -5
0 -6 10 0 15 -5 12 -11 -3 -5 -1 -10 5 -10 6 0 8 -5 4 -12 -4 -6 -3 -8 3 -5 8
5 10 46 3 55 -2 1 -4 7 -5 12 -1 6 -4 12 -5 15 -1 3 -3 10 -4 17 0 6 -9 12
-19 14 -11 1 -16 0 -13 -3z"/>
<path d="M2305 840 c3 -5 8 -10 11 -10 2 0 4 5 4 10 0 6 -5 10 -11 10 -5 0 -7
-4 -4 -10z"/>
<path d="M114 765 c0 -13 3 -22 7 -19 8 4 6 30 -2 38 -3 3 -5 -5 -5 -19z"/>
<path d="M2187 776 c-4 -10 -1 -13 8 -9 8 3 12 9 9 14 -7 12 -11 11 -17 -5z"/>
<path d="M2273 774 c-3 -8 -2 -19 3 -24 5 -5 9 1 9 16 0 28 -3 30 -12 8z"/>
<path d="M160 762 c0 -8 -5 -10 -12 -6 -10 6 -10 4 -2 -7 6 -8 10 -22 9 -32
-2 -9 1 -14 7 -11 5 3 7 9 4 12 -3 3 -2 10 4 16 5 7 5 17 0 26 -7 11 -10 12
-10 2z"/>
<path d="M210 682 c0 -4 10 -13 23 -21 22 -14 22 -14 3 8 -20 22 -26 25 -26
13z"/>
<path d="M2235 680 c-3 -5 -1 -10 4 -10 6 0 11 5 11 10 0 6 -2 10 -4 10 -3 0
-8 -4 -11 -10z"/>
<path d="M2233 645 c0 -8 4 -12 9 -9 5 3 6 10 3 15 -9 13 -12 11 -12 -6z"/>
<path d="M170 626 c0 -2 7 -7 16 -10 8 -3 12 -2 9 4 -6 10 -25 14 -25 6z"/>
<path d="M213 605 c0 -8 4 -12 9 -9 5 3 6 10 3 15 -9 13 -12 11 -12 -6z"/>
<path d="M2184 605 c-10 -8 -14 -15 -8 -15 6 0 17 7 24 15 16 19 9 19 -16 0z"/>
<path d="M230 581 c0 -6 4 -13 10 -16 6 -3 7 1 4 9 -7 18 -14 21 -14 7z"/>
<path d="M2200 580 c-12 -7 -10 -9 7 -7 12 0 19 5 17 9 -6 10 -6 10 -24 -2z"/>
<path d="M236 538 c3 -5 10 -6 15 -3 13 9 11 12 -6 12 -8 0 -12 -4 -9 -9z"/>
<path d="M274 522 c4 -3 14 -7 22 -8 9 -1 13 0 10 4 -4 3 -14 7 -22 8 -9 1
-13 0 -10 -4z"/>
<path d="M295 489 c-4 -6 -5 -12 -2 -15 2 -3 7 2 10 11 7 17 1 20 -8 4z"/>
<path d="M346 492 c2 -3 -1 -11 -7 -18 -7 -8 -7 -14 1 -19 6 -4 9 -1 8 6 -2 7
2 13 9 14 6 0 14 3 18 7 4 4 14 4 23 1 14 -4 15 -3 2 5 -9 7 -19 7 -25 2 -7
-5 -16 -6 -22 -1 -5 5 -8 6 -7 3z"/>
<path d="M2110 491 c0 -6 4 -13 10 -16 6 -3 7 1 4 9 -7 18 -14 21 -14 7z"/>
<path d="M2086 481 c-3 -5 1 -11 9 -14 9 -4 12 -1 8 9 -6 16 -10 17 -17 5z"/>
<path d="M415 470 c-3 -5 -12 -7 -19 -4 -7 3 -16 -2 -20 -12 -5 -14 -4 -15 9
-4 8 7 15 9 15 5 0 -4 7 -2 16 6 13 11 15 9 11 -12 -2 -13 -2 -18 0 -10 4 12
6 12 14 0 6 -10 8 -8 6 8 -1 24 -22 38 -32 23z"/>
<path d="M2055 460 c3 -5 14 -10 23 -10 15 0 15 2 2 10 -20 13 -33 13 -25 0z"/>
<path d="M466 442 c-2 -4 -1 -14 3 -21 6 -9 11 -10 15 -2 4 6 2 11 -4 11 -6 0
-8 5 -5 10 3 6 4 10 1 10 -3 0 -7 -4 -10 -8z"/>
<path d="M375 420 c3 -5 8 -10 11 -10 2 0 4 5 4 10 0 6 -5 10 -11 10 -5 0 -7
-4 -4 -10z"/>
<path d="M504 422 c3 -6 1 -12 -5 -14 -7 -2 -5 -9 5 -17 14 -12 16 -12 10 3
-3 9 -2 16 4 16 5 0 12 -10 16 -22 5 -19 8 -20 15 -8 6 8 13 11 17 7 4 -3 1
-14 -7 -24 -8 -9 -9 -14 -2 -10 6 4 13 4 16 0 2 -5 2 -2 0 5 -1 8 3 12 9 9 7
-2 12 -13 10 -23 -2 -18 -2 -18 13 0 14 19 8 40 -13 41 -4 1 -27 11 -51 24
-23 12 -40 18 -37 13z"/>
<path d="M441 398 c-13 -20 -12 -22 1 -11 8 7 18 10 22 6 4 -4 4 0 0 10 -8 21
-6 21 -23 -5z"/>
<path d="M2026 404 c-5 -14 -4 -15 9 -4 17 14 19 20 6 20 -5 0 -12 -7 -15 -16z"/>
<path d="M1855 380 c-2 -3 0 -12 5 -20 7 -11 11 -11 24 -1 13 11 19 11 33 0
15 -13 15 -12 3 7 -11 18 -56 28 -65 14z m35 -6 c0 -8 -19 -13 -24 -6 -3 5 1
9 9 9 8 0 15 -2 15 -3z"/>
<path d="M499 353 c-13 -17 -13 -17 6 -3 11 8 22 16 24 17 2 2 0 3 -6 3 -6 0
-17 -8 -24 -17z"/>
<path d="M1746 339 c3 -5 10 -6 16 -3 7 4 8 2 4 -4 -5 -9 -13 -9 -27 -2 -17
10 -23 7 -21 -12 1 -3 -6 -12 -15 -20 -15 -11 -16 -11 -10 4 3 10 1 20 -5 24
-7 4 -8 3 -4 -4 4 -7 2 -12 -3 -12 -6 0 -11 6 -11 13 0 6 -5 4 -11 -6 -8 -13
-14 -15 -23 -7 -10 7 -17 6 -26 -5 -9 -11 -16 -12 -25 -5 -9 7 -16 6 -25 -5
-10 -13 -10 -19 4 -33 9 -10 13 -21 10 -25 -3 -3 6 -3 22 2 27 7 41 35 23 47
-5 3 -6 10 -3 16 4 5 14 -2 24 -17 14 -22 18 -24 24 -10 3 9 2 13 -4 10 -6 -3
-10 -2 -10 3 0 18 14 22 30 7 15 -14 19 -13 34 4 10 11 25 17 37 14 10 -3 19
0 19 6 0 6 1 14 3 18 1 3 -6 7 -16 9 -9 1 -15 -2 -11 -7z m-161 -60 c-4 -5 -1
-9 4 -9 6 0 11 5 11 12 0 15 13 1 16 -17 3 -19 -30 -19 -46 0 -13 15 -5 39 11
29 5 -3 7 -10 4 -15z"/>
<path d="M1965 340 c-3 -6 1 -7 9 -4 18 7 21 14 7 14 -6 0 -13 -4 -16 -10z"/>
<path d="M1792 325 c4 -4 0 -14 -10 -22 -15 -13 -15 -13 6 -3 12 6 27 8 32 5
6 -3 10 -4 10 -1 0 3 -10 11 -22 17 -13 6 -20 8 -16 4z"/>
<path d="M575 300 c3 -5 8 -10 11 -10 2 0 4 5 4 10 0 6 -5 10 -11 10 -5 0 -7
-4 -4 -10z"/>
<path d="M660 306 c0 -2 9 -6 20 -9 11 -3 18 -1 14 4 -5 9 -34 13 -34 5z"/>
<path d="M1730 286 c0 -8 4 -17 9 -20 5 -4 7 3 4 14 -6 23 -13 26 -13 6z"/>
<path d="M713 270 c1 -21 10 -18 13 5 1 8 -2 15 -6 15 -5 0 -8 -9 -7 -20z"/>
<path d="M900 275 c-7 -9 -10 -18 -7 -21 3 -3 10 4 17 15 13 25 8 27 -10 6z"/>
<path d="M917 258 c-14 -25 -15 -28 -2 -18 10 8 15 9 15 1 0 -6 5 -11 12 -11
9 0 9 3 0 12 -18 18 -15 33 4 18 12 -11 18 -10 30 3 8 9 11 15 8 12 -4 -3 -14
1 -23 8 -14 11 -14 10 -2 -5 8 -11 9 -18 3 -18 -6 0 -15 7 -19 14 -6 12 -12 8
-26 -16z"/>
<path d="M1082 255 c-16 -17 -19 -26 -11 -31 7 -4 9 -3 6 3 -7 11 42 38 51 28
3 -3 0 -5 -6 -5 -22 0 -12 -17 16 -29 25 -10 26 -10 8 4 -24 18 -15 30 12 16
14 -7 19 -19 17 -41 -1 -16 1 -27 6 -25 4 3 6 14 4 25 -3 18 1 19 36 16 21 -2
42 1 46 7 4 6 1 7 -7 2 -8 -5 -11 -3 -8 5 5 15 38 23 38 9 0 -5 5 -9 10 -9 6
0 6 7 -1 18 -13 21 -76 25 -76 5 0 -9 4 -10 14 -2 14 12 18 1 5 -16 -10 -14
-32 -17 -32 -5 0 5 -6 7 -13 4 -8 -3 -14 2 -14 10 0 8 6 12 14 9 7 -3 13 -1
13 4 0 13 -33 13 -41 1 -4 -6 -18 -4 -35 5 -28 14 -31 14 -52 -8z"/>
<path d="M1335 270 c-4 -6 -14 -9 -24 -5 -12 5 -13 4 -4 -6 10 -10 15 -9 28 1
18 15 21 0 3 -18 -9 -9 -9 -12 1 -12 7 0 9 -5 5 -12 -4 -7 -3 -8 4 -4 6 4 9
13 5 21 -3 10 1 15 12 15 9 0 13 -4 10 -10 -3 -5 -1 -10 4 -10 6 0 11 3 11 8
0 10 -20 39 -20 28 0 -5 -6 -3 -14 3 -10 9 -16 9 -21 1z"/>
<path d="M785 240 c-3 -6 1 -7 9 -4 18 7 21 14 7 14 -6 0 -13 -4 -16 -10z"/>
<path d="M1490 242 c0 -5 7 -9 15 -9 8 0 12 4 9 9 -3 4 -9 8 -15 8 -5 0 -9 -4
-9 -8z"/>
<path d="M1676 238 c3 -5 10 -6 15 -3 13 9 11 12 -6 12 -8 0 -12 -4 -9 -9z"/>
<path d="M860 226 c0 -2 8 -10 18 -17 15 -13 16 -12 3 4 -13 16 -21 21 -21 13z"/>
<path d="M1094 216 c1 -8 5 -18 8 -22 4 -3 5 1 4 10 -1 8 -5 18 -8 22 -4 3 -5
-1 -4 -10z"/>
<path d="M1535 220 c3 -5 8 -10 11 -10 2 0 4 5 4 10 0 6 -5 10 -11 10 -5 0 -7
-4 -4 -10z"/>
<path d="M953 205 c0 -8 4 -12 9 -9 5 3 6 10 3 15 -9 13 -12 11 -12 -6z"/>
<path d="M1275 209 c-11 -16 -1 -19 13 -3 7 8 8 14 3 14 -5 0 -13 -5 -16 -11z"/>
<path d="M1391 204 c0 -11 3 -14 6 -6 3 7 2 16 -1 19 -3 4 -6 -2 -5 -13z"/>
<path d="M1493 205 c0 -8 4 -12 9 -9 5 3 6 10 3 15 -9 13 -12 11 -12 -6z"/>
</g>
</svg>
